<svg
  width="499"
  height="499"
  viewBox="0 0 499 499"
  fill="none"
  xmlns="http://www.w3.org/2000/svg"
>
  <path
    d="M402.758 249.479C402.758 333.86 334.352 402.265 249.971 402.265C165.588 402.265 97.1829 333.86 97.1829 249.479C97.1829 165.096 165.588 96.6922 249.971 96.6922C334.352 96.6922 402.758 165.096 402.758 249.479Z"
    fill="black"
  />
  <path
    d="M249.971 48.8582C139.349 48.8582 49.3498 138.857 49.3498 249.48C49.3498 360.101 139.349 450.1 249.971 450.1C360.594 450.1 450.591 360.101 450.591 249.48C450.591 138.857 360.594 48.8582 249.971 48.8582ZM249.971 498.184C183.539 498.184 121.083 472.313 74.1098 425.34C27.1352 378.365 1.26584 315.91 1.26584 249.48C1.26584 183.048 27.1352 120.592 74.1098 73.6182C121.083 26.6436 183.539 0.774247 249.971 0.774247C316.402 0.774247 378.858 26.6436 425.832 73.6182C472.806 120.592 498.675 183.048 498.675 249.48C498.675 315.91 472.806 378.365 425.832 425.34C378.858 472.313 316.402 498.184 249.971 498.184Z"
    fill="#6378BA"
  />
  <path
    d="M249.971 96.6819C165.719 96.6819 97.1739 165.227 97.1739 249.479C97.1739 333.731 165.719 402.277 249.971 402.277C334.223 402.277 402.767 333.731 402.767 249.479C402.767 165.227 334.223 96.6819 249.971 96.6819ZM249.971 450.099C139.349 450.099 49.3499 360.101 49.3499 249.479C49.3499 138.857 139.349 48.8578 249.971 48.8578C360.593 48.8578 450.591 138.857 450.591 249.479C450.591 360.101 360.593 450.099 249.971 450.099Z"
    fill="#46BA86"
  />
  <path
    d="M360.823 63.0249C364.909 65.4263 367.619 69.3263 368.445 73.9969C369.261 78.6569 368.06 83.2383 365.041 86.8956C360.04 92.9663 351.471 94.4743 344.673 90.4649C316.076 73.6556 283.337 64.7543 249.993 64.7543C216.627 64.7543 183.877 73.6556 155.269 90.4983C148.472 94.4969 139.903 92.9983 134.901 86.9289C131.883 83.2716 130.683 78.6889 131.497 74.0289C132.323 69.3583 135.033 65.4596 139.12 63.0476C172.585 43.3396 210.92 32.9183 249.993 32.9183C289.044 32.9183 327.368 43.3289 360.823 63.0249ZM400.093 68.4116C397.648 54.5316 389.276 42.4689 377.127 35.3209C366.649 29.1516 355.756 23.7756 344.541 19.2263C338.307 16.6823 331.961 14.4009 325.539 12.3863H325.528C301.228 4.71959 275.748 0.774258 249.993 0.774258C205.192 0.774258 161.207 12.7276 122.805 35.3543C110.656 42.5023 102.284 54.5649 99.8388 68.4449C99.3428 71.2316 99.1108 74.0289 99.1108 76.8049C99.1108 87.8876 102.933 98.6929 110.093 107.374C119.556 118.841 133.193 124.912 147.107 124.912C155.445 124.912 163.895 122.73 171.584 118.202C195.245 104.268 222.365 96.9089 249.993 96.9089C277.609 96.9089 304.719 104.257 328.371 118.181C348.881 130.244 374.736 125.682 389.849 107.341C398.816 96.4689 402.549 82.2796 400.093 68.4116"
    fill="#DDEFE4"
  />
  <path
    d="M139.121 63.048C135.033 65.46 132.323 69.3587 131.497 74.0307C130.683 78.688 131.883 83.272 134.9 86.9294C139.901 92.9987 148.472 94.4974 155.269 90.4974C183.877 73.656 216.627 64.7547 249.993 64.7547C283.337 64.7547 316.076 73.6561 344.673 90.4654C351.471 94.4747 360.04 92.9667 365.041 86.896C368.059 83.2387 369.26 78.656 368.445 73.996C367.619 69.3267 364.909 65.4267 360.823 63.0254C327.367 43.3294 289.044 32.9187 249.993 32.9187C210.92 32.9187 172.585 43.34 139.121 63.048"
    fill="url(#paint0_linear)"
  />
  <path
    d="M33.0708 246.705C33.1068 241.965 35.1295 237.669 38.7615 234.618C42.3895 231.582 46.9588 230.33 51.6348 231.115C59.3921 232.411 64.9841 239.079 64.9095 246.97C64.6508 280.141 73.3108 312.943 89.9841 341.821C106.667 370.717 130.749 394.629 159.64 410.982C166.501 414.87 169.489 423.041 166.733 430.406C165.075 434.849 161.707 438.179 157.264 439.803C152.805 441.423 148.073 441.026 143.941 438.694C110.141 419.565 81.9495 391.577 62.4135 357.738C42.8881 323.919 32.7415 285.526 33.0708 246.705ZM18.1001 210.002C7.30279 219.059 1.04279 232.341 0.926789 246.438C0.821455 258.594 1.61346 270.718 3.28146 282.705C4.19479 289.375 5.39212 296.011 6.85746 302.581L6.86279 302.59C12.3748 327.469 21.6988 351.506 34.5761 373.811C56.9761 412.61 89.3201 444.727 128.115 466.67C140.381 473.618 155.015 474.837 168.257 470.014C170.919 469.05 173.457 467.851 175.861 466.463C185.459 460.922 192.905 452.209 196.843 441.669C202.043 427.739 200.48 412.894 193.524 400.845C189.355 393.623 183.241 387.397 175.476 383.002C151.577 369.478 131.644 349.67 117.831 325.743C104.021 301.827 96.8308 274.675 97.0641 247.231C97.2535 223.437 80.3775 203.327 56.9361 199.409C43.0375 197.079 28.8828 200.941 18.1001 210.002Z"
    fill="#E4E8F1"
  />
  <path
    d="M38.7613 234.617C35.1293 237.668 33.1067 241.965 33.0707 246.704C32.7413 285.525 42.888 323.919 62.4133 357.739C81.9493 391.576 110.141 419.565 143.941 438.695C148.073 441.027 152.805 441.424 157.264 439.804C161.707 438.18 165.076 434.849 166.733 430.407C169.489 423.04 166.501 414.869 159.641 410.981C130.749 394.629 106.667 370.717 89.9827 341.821C73.312 312.944 64.6507 280.141 64.9093 246.971C64.984 239.08 59.392 232.412 51.6347 231.115C50.7227 230.961 49.8147 230.887 48.9173 230.887C45.212 230.887 41.6813 232.173 38.7613 234.617"
    fill="url(#paint1_linear)"
  />
  <path
    d="M356.018 438.706C351.895 441.045 347.163 441.442 342.705 439.822C338.262 438.198 334.894 434.867 333.237 430.425C330.479 423.059 333.458 414.882 340.329 411.001C369.185 394.641 393.263 370.738 409.935 341.861C426.618 312.963 435.285 280.151 435.002 246.955C434.938 239.07 440.521 232.397 448.277 231.101C452.954 230.315 457.522 231.567 461.151 234.602C464.782 237.653 466.805 241.95 466.851 246.695C467.185 285.531 457.042 323.941 437.506 357.778C417.981 391.597 389.803 419.581 356.018 438.706ZM331.718 470.022C344.961 474.845 359.593 473.625 371.859 466.678C382.439 460.689 392.543 453.942 402.09 446.506C407.41 442.378 412.558 438.023 417.515 433.469L417.521 433.459C436.31 416.249 452.465 396.154 465.343 373.85C487.743 335.051 499.385 290.983 498.99 246.413C498.875 232.317 492.614 219.035 481.817 209.977C479.651 208.154 477.343 206.555 474.939 205.167C465.342 199.626 454.073 197.534 442.975 199.394C428.313 201.855 416.238 210.63 409.281 222.679C405.111 229.901 402.775 238.309 402.853 247.231C403.09 274.69 395.902 301.857 382.089 325.783C368.279 349.699 348.362 369.503 324.478 383.023C303.777 394.757 294.798 419.426 303.126 441.685C308.058 454.887 318.479 465.215 331.718 470.022"
    fill="#E4E8F1"
  />
  <path
    d="M448.277 231.1C440.521 232.396 434.937 239.069 435.003 246.955C435.284 280.152 426.619 312.964 409.936 341.86C393.263 370.737 369.185 394.64 340.329 411C333.459 414.881 330.48 423.059 333.236 430.424C334.893 434.868 338.263 438.197 342.704 439.821C347.164 441.441 351.895 441.044 356.019 438.707C389.803 419.581 417.98 391.597 437.505 357.779C457.041 323.94 467.184 285.532 466.851 246.695C466.805 241.949 464.783 237.653 461.151 234.603C458.231 232.159 454.701 230.871 450.997 230.871C450.099 230.872 449.189 230.947 448.277 231.1"
    fill="url(#paint2_linear)"
  />
  <path
    d="M210.258 174.213L242.726 270.14L277.072 161.468H339.592L272.242 337.491H210.258L160.349 174.213H210.258Z"
    fill="#DDEFE4"
  />
  <defs>
    <linearGradient
      id="paint0_linear"
      x1="131.248"
      y1="62.8228"
      x2="368.694"
      y2="62.8228"
      gradientUnits="userSpaceOnUse"
    >
      <stop stop-color="#46BA86" />
      <stop offset="0.574742" stop-color="#217FC3" />
      <stop offset="1" stop-color="#6378BB" />
    </linearGradient>
    <linearGradient
      id="paint1_linear"
      x1="33.0633"
      y1="335.836"
      x2="167.753"
      y2="335.836"
      gradientUnits="userSpaceOnUse"
    >
      <stop stop-color="#6378BB" />
      <stop offset="0.425258" stop-color="#217FC3" />
      <stop offset="1" stop-color="#46BA86" />
    </linearGradient>
    <linearGradient
      id="paint2_linear"
      x1="332.215"
      y1="335.837"
      x2="466.858"
      y2="335.837"
      gradientUnits="userSpaceOnUse"
    >
      <stop stop-color="#6378BB" />
      <stop offset="0.425258" stop-color="#217FC3" />
      <stop offset="1" stop-color="#46BA86" />
    </linearGradient>
  </defs>
</svg>
